<?xml version="1.0" encoding="UTF-8"?>
<!DOCTYPE svg PUBLIC "-//W3C//DTD SVG 1.1//EN" "http://www.w3.org/Graphics/SVG/1.1/DTD/svg11.dtd">
<svg xmlns="http://www.w3.org/2000/svg" version="1.1" width="500px" height="500px" style="shape-rendering:geometricPrecision; text-rendering:geometricPrecision; image-rendering:optimizeQuality; fill-rule:evenodd; clip-rule:evenodd" xmlns:xlink="http://www.w3.org/1999/xlink">
<g><path style="opacity:0.004" fill="#fefffe" d="M 430.5,24.5 C 431.833,25.1667 431.833,25.1667 430.5,24.5 Z"/></g>
<g><path style="opacity:0.004" fill="#fefffe" d="M 378.5,26.5 C 379.833,27.1667 379.833,27.1667 378.5,26.5 Z"/></g>
<g><path style="opacity:0.004" fill="#fefffe" d="M 100.5,30.5 C 101.833,31.1667 101.833,31.1667 100.5,30.5 Z"/></g>
<g><path style="opacity:0.004" fill="#fefffe" d="M 353.5,30.5 C 354.833,31.1667 354.833,31.1667 353.5,30.5 Z"/></g>
<g><path style="opacity:0.004" fill="#fefffe" d="M 50.5,40.5 C 51.8333,41.1667 51.8333,41.1667 50.5,40.5 Z"/></g>
<g><path style="opacity:1" fill="#5f4920" d="M 306.5,45.5 C 294.676,43.9513 283.009,44.6179 271.5,47.5C 271.36,45.8762 272.027,44.7096 273.5,44C 276.5,43.6667 279.5,43.3333 282.5,43C 282.833,42.6667 283.167,42.3333 283.5,42C 282.5,41.6667 281.5,41.3333 280.5,41C 264.861,39.5143 249.194,39.1809 233.5,40C 231.385,40.4244 230.552,41.5911 231,43.5C 233.333,43.5 235.667,43.5 238,43.5C 239.814,44.8514 239.481,45.8514 237,46.5C 233.256,45.374 229.423,45.2073 225.5,46C 224.264,49.0927 222.597,51.9261 220.5,54.5C 221.262,54.9106 222.262,55.0773 223.5,55C 220.878,55.9226 218.378,57.0893 216,58.5C 215.612,57.572 214.945,56.9054 214,56.5C 211.003,58.1436 210.003,60.477 211,63.5C 210,64.8333 209,64.8333 208,63.5C 207.727,65.1012 207.227,66.6012 206.5,68C 208.101,68.2734 209.601,68.7734 211,69.5C 211.856,67.1316 212.69,64.7983 213.5,62.5C 214.5,62.5 215.5,62.5 216.5,62.5C 216.995,59.0029 218.828,58.0029 222,59.5C 222.781,60.9437 222.614,62.277 221.5,63.5C 215.805,68.6959 210.305,74.0292 205,79.5C 204.396,77.3143 203.23,77.1476 201.5,79C 202.308,79.3076 202.975,79.8076 203.5,80.5C 200.814,83.2636 198.481,85.5969 196.5,87.5C 194.597,86.0527 192.93,84.386 191.5,82.5C 190.573,84.1128 189.739,85.7795 189,87.5C 187.943,85.7806 187.11,83.9472 186.5,82C 188.577,81.8078 190.577,81.3078 192.5,80.5C 191.152,80.5504 189.652,80.217 188,79.5C 186.193,77.2307 186.693,75.3974 189.5,74C 187.892,73.342 186.725,73.842 186,75.5C 185.821,77.4242 185.654,79.0909 185.5,80.5C 183.801,74.8973 185.634,70.8973 191,68.5C 193.032,68.8584 194.866,69.6917 196.5,71C 195.5,71.3333 194.5,71.6667 193.5,72C 195.936,75.011 195.936,78.1777 193.5,81.5C 193.833,81.8333 194.167,82.1667 194.5,82.5C 196.269,80.443 198.269,78.6097 200.5,77C 196.613,76.1999 195.946,74.5332 198.5,72C 198.091,69.0714 196.757,66.7381 194.5,65C 195.416,64.6258 196.25,64.1258 197,63.5C 197.748,67.914 200.248,69.414 204.5,68C 206.515,66.4447 206.848,64.6114 205.5,62.5C 204.756,63.9905 204.09,65.4905 203.5,67C 202.5,67.6667 201.5,67.6667 200.5,67C 202.55,65.3644 203.55,63.1977 203.5,60.5C 199.162,60.3781 198.828,60.0447 202.5,59.5C 201.947,57.0607 201.947,54.7273 202.5,52.5C 204.725,51.1065 207.058,49.9398 209.5,49C 210.337,47.9887 210.67,46.8221 210.5,45.5C 212.591,45.6816 214.591,45.3482 216.5,44.5C 217.251,45.376 217.751,46.376 218,47.5C 218.309,46.2341 218.809,45.0674 219.5,44C 215.572,42.6752 211.572,42.3418 207.5,43C 198.382,46.2139 189.049,48.8806 179.5,51C 176.943,51.6853 175.109,53.1853 174,55.5C 171.619,54.565 169.119,54.2317 166.5,54.5C 206.321,37.5499 247.654,33.0499 290.5,41C 296.113,41.9466 301.446,43.4466 306.5,45.5 Z"/></g>
<g><path style="opacity:0.004" fill="#fefffe" d="M 78.5,57.5 C 79.8333,58.1667 79.8333,58.1667 78.5,57.5 Z"/></g>
<g><path style="opacity:0.004" fill="#fefffe" d="M 18.5,58.5 C 19.8333,59.1667 19.8333,59.1667 18.5,58.5 Z"/></g>
<g><path style="opacity:0.004" fill="#fefffe" d="M 453.5,64.5 C 454.833,65.1667 454.833,65.1667 453.5,64.5 Z"/></g>
<g><path style="opacity:0.004" fill="#fefffe" d="M 39.5,65.5 C 40.8333,66.1667 40.8333,66.1667 39.5,65.5 Z"/></g>
<g><path style="opacity:0.004" fill="#fefffe" d="M 363.5,65.5 C 364.833,66.1667 364.833,66.1667 363.5,65.5 Z"/></g>
<g><path style="opacity:0.004" fill="#fefffe" d="M 379.5,69.5 C 380.833,70.1667 380.833,70.1667 379.5,69.5 Z"/></g>
<g><path style="opacity:1" fill="#5e4b28" d="M 161.5,56.5 C 161.611,57.1174 161.944,57.6174 162.5,58C 155.777,61.1112 149.277,64.6112 143,68.5C 141.726,69.5353 140.56,70.702 139.5,72C 135.66,73.3421 131.994,75.0088 128.5,77C 127.167,78.8402 127.334,79.3402 129,78.5C 129.5,79 130,79.5 130.5,80C 127.346,82.4057 123.346,84.0724 118.5,85C 115.974,87.6682 112.974,89.5016 109.5,90.5C 124.961,76.3858 142.294,65.0524 161.5,56.5 Z"/></g>
<g><path style="opacity:0.004" fill="#fefffe" d="M 467.5,79.5 C 468.833,80.1667 468.833,80.1667 467.5,79.5 Z"/></g>
<g><path style="opacity:0.004" fill="#fefffe" d="M 101.5,81.5 C 102.833,82.1667 102.833,82.1667 101.5,81.5 Z"/></g>
<g><path style="opacity:1" fill="#5f4d2b" d="M 88.5,111.5 C 88.5086,113.308 88.0086,114.975 87,116.5C 84.2994,120.38 81.2994,124.047 78,127.5C 73.4444,136.397 68.4444,145.064 63,153.5C 61.9513,155.384 60.4513,156.718 58.5,157.5C 66.5122,140.793 76.5122,125.459 88.5,111.5 Z"/></g>
<g><path style="opacity:0.004" fill="#fefffe" d="M 11.5,169.5 C 12.8333,170.167 12.8333,170.167 11.5,169.5 Z"/></g>
<g><path style="opacity:0.004" fill="#fefffe" d="M 48.5,180.5 C 47.8333,179.167 47.8333,179.167 48.5,180.5 Z"/></g>
<g><path style="opacity:0.004" fill="#fefffe" d="M 491.5,211.5 C 492.833,212.167 492.833,212.167 491.5,211.5 Z"/></g>
<g><path style="opacity:1" fill="#5c4418" d="M 306.5,45.5 C 356.589,59.4573 396.422,87.7906 426,130.5C 462.179,186.739 471.179,247.072 453,311.5C 438.836,356.319 413.003,392.819 375.5,421C 368.775,425.693 361.775,429.86 354.5,433.5C 346.173,436.92 337.673,440.254 329,443.5C 327.11,443.215 325.777,442.215 325,440.5C 323.484,443.051 322.651,442.718 322.5,439.5C 321.325,439.281 320.325,439.614 319.5,440.5C 320.5,441.833 321.5,443.167 322.5,444.5C 319.757,449.287 315.757,450.621 310.5,448.5C 308.792,448.703 307.459,449.536 306.5,451C 303.443,451.256 300.443,451.756 297.5,452.5C 296.914,452.291 296.414,451.957 296,451.5C 295.097,452.701 293.931,453.535 292.5,454C 285.109,455.74 278.109,457.907 271.5,460.5C 197.611,466.12 136.111,441.454 87,386.5C 72.7527,369.343 61.586,350.343 53.5,329.5C 53.2725,325.61 53.6058,321.776 54.5,318C 54,316.5 53.5,315 53,313.5C 52.6667,313.833 52.3333,314.167 52,314.5C 51,311.833 50,311.833 49,314.5C 46.5154,307.472 45.1821,300.139 45,292.5C 42.1948,289.447 41.3614,285.947 42.5,282C 41.0228,278.67 40.1895,275.17 40,271.5C 39.6174,272.056 39.1174,272.389 38.5,272.5C 35.4133,241.117 38.7466,210.45 48.5,180.5C 51.4443,172.668 54.7776,165.002 58.5,157.5C 60.4513,156.718 61.9513,155.384 63,153.5C 68.4444,145.064 73.4444,136.397 78,127.5C 81.2994,124.047 84.2994,120.38 87,116.5C 88.0086,114.975 88.5086,113.308 88.5,111.5C 94.8762,103.825 101.876,96.8247 109.5,90.5C 112.974,89.5016 115.974,87.6682 118.5,85C 123.346,84.0724 127.346,82.4057 130.5,80C 130,79.5 129.5,79 129,78.5C 127.334,79.3402 127.167,78.8402 128.5,77C 131.994,75.0088 135.66,73.3421 139.5,72C 140.56,70.702 141.726,69.5353 143,68.5C 149.277,64.6112 155.777,61.1112 162.5,58C 161.944,57.6174 161.611,57.1174 161.5,56.5C 163.05,55.5592 164.716,54.8925 166.5,54.5C 169.119,54.2317 171.619,54.565 174,55.5C 175.109,53.1853 176.943,51.6853 179.5,51C 189.049,48.8806 198.382,46.2139 207.5,43C 211.572,42.3418 215.572,42.6752 219.5,44C 218.809,45.0674 218.309,46.2341 218,47.5C 217.751,46.376 217.251,45.376 216.5,44.5C 214.591,45.3482 212.591,45.6816 210.5,45.5C 210.67,46.8221 210.337,47.9887 209.5,49C 207.058,49.9398 204.725,51.1065 202.5,52.5C 201.947,54.7273 201.947,57.0607 202.5,59.5C 198.828,60.0447 199.162,60.3781 203.5,60.5C 203.55,63.1977 202.55,65.3644 200.5,67C 201.5,67.6667 202.5,67.6667 203.5,67C 204.09,65.4905 204.756,63.9905 205.5,62.5C 206.848,64.6114 206.515,66.4447 204.5,68C 200.248,69.414 197.748,67.914 197,63.5C 196.25,64.1258 195.416,64.6258 194.5,65C 196.757,66.7381 198.091,69.0714 198.5,72C 195.946,74.5332 196.613,76.1999 200.5,77C 198.269,78.6097 196.269,80.443 194.5,82.5C 194.167,82.1667 193.833,81.8333 193.5,81.5C 195.936,78.1777 195.936,75.011 193.5,72C 194.5,71.6667 195.5,71.3333 196.5,71C 194.866,69.6917 193.032,68.8584 191,68.5C 185.634,70.8973 183.801,74.8973 185.5,80.5C 185.654,79.0909 185.821,77.4242 186,75.5C 186.725,73.842 187.892,73.342 189.5,74C 186.693,75.3974 186.193,77.2307 188,79.5C 189.652,80.217 191.152,80.5504 192.5,80.5C 190.577,81.3078 188.577,81.8078 186.5,82C 187.11,83.9472 187.943,85.7806 189,87.5C 189.739,85.7795 190.573,84.1128 191.5,82.5C 192.93,84.386 194.597,86.0527 196.5,87.5C 198.481,85.5969 200.814,83.2636 203.5,80.5C 202.975,79.8076 202.308,79.3076 201.5,79C 203.23,77.1476 204.396,77.3143 205,79.5C 210.305,74.0292 215.805,68.6959 221.5,63.5C 222.614,62.277 222.781,60.9437 222,59.5C 218.828,58.0029 216.995,59.0029 216.5,62.5C 215.5,62.5 214.5,62.5 213.5,62.5C 212.69,64.7983 211.856,67.1316 211,69.5C 209.601,68.7734 208.101,68.2734 206.5,68C 207.227,66.6012 207.727,65.1012 208,63.5C 209,64.8333 210,64.8333 211,63.5C 210.003,60.477 211.003,58.1436 214,56.5C 214.945,56.9054 215.612,57.572 216,58.5C 218.378,57.0893 220.878,55.9226 223.5,55C 222.262,55.0773 221.262,54.9106 220.5,54.5C 222.597,51.9261 224.264,49.0927 225.5,46C 229.423,45.2073 233.256,45.374 237,46.5C 239.481,45.8514 239.814,44.8514 238,43.5C 235.667,43.5 233.333,43.5 231,43.5C 230.552,41.5911 231.385,40.4244 233.5,40C 249.194,39.1809 264.861,39.5143 280.5,41C 281.5,41.3333 282.5,41.6667 283.5,42C 283.167,42.3333 282.833,42.6667 282.5,43C 279.5,43.3333 276.5,43.6667 273.5,44C 272.027,44.7096 271.36,45.8762 271.5,47.5C 283.009,44.6179 294.676,43.9513 306.5,45.5 Z"/></g>
<g><path style="opacity:1" fill="#9ad452" d="M 381.5,175.5 C 383.771,179.709 385.771,184.042 387.5,188.5C 386.504,188.586 385.671,188.252 385,187.5C 383.082,177.3 378.915,176.133 372.5,184C 371.24,185.113 370.073,185.28 369,184.5C 367.833,185.667 366.667,186.833 365.5,188C 362.709,189.789 359.709,191.122 356.5,192C 355.663,193.011 355.33,194.178 355.5,195.5C 353.799,195.966 352.299,195.966 351,195.5C 350.5,196 350,196.5 349.5,197C 350.867,199.301 351.534,201.801 351.5,204.5C 348.813,205.336 346.48,206.836 344.5,209C 344.833,209.333 345.167,209.667 345.5,210C 343.333,210.833 341.833,212.333 341,214.5C 340.086,213.346 339.253,213.513 338.5,215C 339.28,216.073 339.113,217.24 338,218.5C 337.683,216.699 337.016,216.366 336,217.5C 334.667,216.833 333.333,216.167 332,215.5C 330.796,216.471 330.296,217.471 330.5,218.5C 329.201,217.91 328.368,216.91 328,215.5C 327.187,217.436 326.687,219.436 326.5,221.5C 325.022,221.238 323.689,221.571 322.5,222.5C 323.661,224.378 322.994,225.378 320.5,225.5C 319.833,225.167 319.167,224.833 318.5,224.5C 319.641,223.575 319.641,222.741 318.5,222C 313.695,221.776 312.695,223.61 315.5,227.5C 311.928,229.329 311.928,231.329 315.5,233.5C 316.675,233.281 317.675,233.614 318.5,234.5C 320.278,236.945 321.611,239.611 322.5,242.5C 323.176,241.398 323.842,240.398 324.5,239.5C 324.5,240.833 324.5,242.167 324.5,243.5C 320.131,243.467 315.798,243.8 311.5,244.5C 311.33,245.822 311.663,246.989 312.5,248C 318.348,248.173 324.015,248.673 329.5,249.5C 322.761,250.239 316.094,250.239 309.5,249.5C 309.357,247.738 309.691,246.071 310.5,244.5C 308.97,242.774 307.97,240.774 307.5,238.5C 306.311,237.571 304.978,237.238 303.5,237.5C 303.5,236.5 303.5,235.5 303.5,234.5C 305.446,234.807 307.113,234.807 308.5,234.5C 306.726,231.763 305.059,229.096 303.5,226.5C 305.484,226.383 307.15,227.05 308.5,228.5C 309.78,226.276 309.447,224.276 307.5,222.5C 309.664,221.586 311.664,220.419 313.5,219C 312.892,218.13 312.059,217.63 311,217.5C 306.07,220.136 301.903,222.97 298.5,226C 300.257,231.53 301.591,237.197 302.5,243C 301.543,250.203 300.376,257.37 299,264.5C 295.603,266.558 293.937,269.558 294,273.5C 293.167,274.333 292.333,275.167 291.5,276C 292.337,277.011 292.67,278.178 292.5,279.5C 294.564,279.687 296.564,280.187 298.5,281C 298.167,281.333 297.833,281.667 297.5,282C 298.509,284.172 300.176,285.338 302.5,285.5C 302.157,283.517 302.824,282.183 304.5,281.5C 304.288,287.643 306.955,289.976 312.5,288.5C 313.167,288.167 313.833,287.833 314.5,287.5C 314.833,287.5 315.167,287.5 315.5,287.5C 316.329,288.332 317.162,287.999 318,286.5C 323.509,290.83 329.343,294.496 335.5,297.5C 333.801,297.66 332.134,297.494 330.5,297C 326.324,294.412 322.324,291.579 318.5,288.5C 314.374,290.281 310.041,290.948 305.5,290.5C 299.19,286.185 293.19,281.518 287.5,276.5C 305.942,252.354 304.609,229.354 283.5,207.5C 288.619,209.42 292.286,212.92 294.5,218C 298.601,217.391 299.434,215.224 297,211.5C 296.667,211.833 296.333,212.167 296,212.5C 295.333,211.167 294.333,210.167 293,209.5C 292.605,207.821 292.772,206.155 293.5,204.5C 293.471,202.971 292.804,201.804 291.5,201C 291.728,200.601 292.062,200.435 292.5,200.5C 296.162,200.966 299.495,200.299 302.5,198.5C 302.461,199.583 302.127,200.583 301.5,201.5C 299.577,202.308 297.577,202.808 295.5,203C 296.77,203.9 297.77,205.066 298.5,206.5C 300.071,205.691 301.738,205.357 303.5,205.5C 303.338,207.527 303.505,209.527 304,211.5C 304.093,208.993 304.926,206.826 306.5,205C 310.167,204.667 313.833,204.333 317.5,204C 314.018,202.756 311.018,200.756 308.5,198C 310.656,196.546 312.99,195.879 315.5,196C 315.159,199.059 316.659,201.226 320,202.5C 322.853,200.158 326.019,198.491 329.5,197.5C 325.733,200.56 321.733,203.394 317.5,206C 315.803,206.384 314.137,206.218 312.5,205.5C 306.687,205.466 305.353,207.8 308.5,212.5C 306.629,212.859 305.129,213.859 304,215.5C 303.409,216.483 303.743,217.15 305,217.5C 320.493,211.34 334.993,203.506 348.5,194C 356.321,189.617 364.321,185.617 372.5,182C 374.839,178.814 377.839,176.648 381.5,175.5 Z"/></g>
<g><path style="opacity:1" fill="#403110" d="M 312.5,205.5 C 314.521,209.751 313.187,212.084 308.5,212.5C 305.353,207.8 306.687,205.466 312.5,205.5 Z"/></g>
<g><path style="opacity:1" fill="#48191e" d="M 308.5,207.5 C 309.5,207.5 310.5,207.5 311.5,207.5C 311.5,208.5 311.5,209.5 311.5,210.5C 310.5,210.5 309.5,210.5 308.5,210.5C 308.5,209.5 308.5,208.5 308.5,207.5 Z"/></g>
<g><path style="opacity:1" fill="#95b554" d="M 291.5,186.5 C 293.934,186.648 296.601,186.814 299.5,187C 300.056,187.383 300.389,187.883 300.5,188.5C 303.117,189.297 304.45,191.131 304.5,194C 304.693,196.008 304.026,197.508 302.5,198.5C 299.495,200.299 296.162,200.966 292.5,200.5C 290.642,196.473 289.975,192.14 290.5,187.5C 290.5,186.833 290.833,186.5 291.5,186.5 Z"/></g>
<g><path style="opacity:1" fill="#4e7a1a" d="M 283.5,207.5 C 304.609,229.354 305.942,252.354 287.5,276.5C 271.961,291.367 253.961,295.2 233.5,288C 209.07,274.743 200.57,254.576 208,227.5C 212.947,216.727 220.447,208.393 230.5,202.5C 233.936,200.519 237.603,199.019 241.5,198C 248.833,197.333 256.167,197.333 263.5,198C 270.614,200.392 277.281,203.559 283.5,207.5 Z"/></g>
<g><path style="opacity:1" fill="#3e2611" d="M 300.5,188.5 C 304.119,194.138 302.786,197.804 296.5,199.5C 294.645,199.66 293.312,198.993 292.5,197.5C 290,190.321 292.666,187.321 300.5,188.5 Z"/></g>
<g><path style="opacity:1" fill="#471b1c" d="M 292.5,197.5 C 291.333,191.504 293.666,189.004 299.5,190C 300.337,191.011 300.67,192.178 300.5,193.5C 298.567,193.729 296.9,194.562 295.5,196C 296.833,196.333 298.167,196.667 299.5,197C 297.19,197.497 294.857,197.663 292.5,197.5 Z"/></g>
<g><path style="opacity:1" fill="#6f8a29" d="M 95.5,166.5 C 92.4872,174.023 88.9872,181.357 85,188.5C 84.6667,191.833 84.3333,195.167 84,198.5C 81.4813,204.684 78.9813,210.684 76.5,216.5C 79.8219,199.675 85.3219,183.675 93,168.5C 93.7083,167.619 94.5416,166.953 95.5,166.5 Z"/></g>
<g><path style="opacity:1" fill="#bde695" d="M 377.5,171.5 C 380.5,171.167 381.833,172.5 381.5,175.5C 377.839,176.648 374.839,178.814 372.5,182C 364.321,185.617 356.321,189.617 348.5,194C 334.993,203.506 320.493,211.34 305,217.5C 303.743,217.15 303.409,216.483 304,215.5C 305.129,213.859 306.629,212.859 308.5,212.5C 313.187,212.084 314.521,209.751 312.5,205.5C 314.137,206.218 315.803,206.384 317.5,206C 321.733,203.394 325.733,200.56 329.5,197.5C 345.22,188.478 361.22,179.811 377.5,171.5 Z"/></g>
<g><path style="opacity:1" fill="#a0d25d" d="M 250.5,98.5 C 250.333,124.169 250.5,149.835 251,175.5C 251.34,179.558 252.007,183.558 253,187.5C 253.667,186.833 254.333,186.167 255,185.5C 255.498,182.183 255.665,178.85 255.5,175.5C 255.833,175.5 256.167,175.5 256.5,175.5C 256.986,180.699 256.319,185.699 254.5,190.5C 253.675,191.386 252.675,191.719 251.5,191.5C 250.869,187.196 250.369,182.863 250,178.5C 249.5,152.502 249.333,126.502 249.5,100.5C 244.156,100.334 238.823,100.501 233.5,101C 220.21,104.824 206.544,107.99 192.5,110.5C 192.5,110.167 192.5,109.833 192.5,109.5C 193.609,109.443 194.609,109.11 195.5,108.5C 213.142,101.644 231.475,98.3111 250.5,98.5 Z"/></g>
<g><path style="opacity:1" fill="#99d74c" d="M 387.5,188.5 C 390.583,194.454 392.916,200.787 394.5,207.5C 396.002,218.846 397.335,230.179 398.5,241.5C 381.987,240.324 366.32,240.324 351.5,241.5C 348.606,239.036 345.606,238.87 342.5,241C 341.748,241.671 341.414,242.504 341.5,243.5C 340.5,243.5 339.5,243.5 338.5,243.5C 339.037,240.028 338.037,237.195 335.5,235C 332.183,234.502 328.85,234.335 325.5,234.5C 325.634,236.292 325.301,237.958 324.5,239.5C 323.842,240.398 323.176,241.398 322.5,242.5C 321.611,239.611 320.278,236.945 318.5,234.5C 317.675,233.614 316.675,233.281 315.5,233.5C 311.928,231.329 311.928,229.329 315.5,227.5C 312.695,223.61 313.695,221.776 318.5,222C 319.641,222.741 319.641,223.575 318.5,224.5C 319.167,224.833 319.833,225.167 320.5,225.5C 322.994,225.378 323.661,224.378 322.5,222.5C 323.689,221.571 325.022,221.238 326.5,221.5C 326.687,219.436 327.187,217.436 328,215.5C 328.368,216.91 329.201,217.91 330.5,218.5C 330.296,217.471 330.796,216.471 332,215.5C 333.333,216.167 334.667,216.833 336,217.5C 337.016,216.366 337.683,216.699 338,218.5C 339.113,217.24 339.28,216.073 338.5,215C 339.253,213.513 340.086,213.346 341,214.5C 341.833,212.333 343.333,210.833 345.5,210C 345.167,209.667 344.833,209.333 344.5,209C 346.48,206.836 348.813,205.336 351.5,204.5C 351.534,201.801 350.867,199.301 349.5,197C 350,196.5 350.5,196 351,195.5C 352.299,195.966 353.799,195.966 355.5,195.5C 355.33,194.178 355.663,193.011 356.5,192C 359.709,191.122 362.709,189.789 365.5,188C 366.667,186.833 367.833,185.667 369,184.5C 370.073,185.28 371.24,185.113 372.5,184C 378.915,176.133 383.082,177.3 385,187.5C 385.671,188.252 386.504,188.586 387.5,188.5 Z"/></g>
<g><path style="opacity:1" fill="#66961d" d="M 192.5,109.5 C 192.5,109.833 192.5,110.167 192.5,110.5C 191.957,110.56 191.624,110.893 191.5,111.5C 204.702,141.78 217.702,172.114 230.5,202.5C 220.447,208.393 212.947,216.727 208,227.5C 200.57,254.576 209.07,274.743 233.5,288C 253.961,295.2 271.961,291.367 287.5,276.5C 293.19,281.518 299.19,286.185 305.5,290.5C 327.196,306.855 349.196,322.855 371.5,338.5C 376.936,343.601 382.936,347.934 389.5,351.5C 390.412,352.738 390.579,354.072 390,355.5C 382.06,365.277 373.56,374.61 364.5,383.5C 358.795,387.859 352.795,391.859 346.5,395.5C 342.905,396.733 339.572,396.066 336.5,393.5C 335.614,392.675 335.281,391.675 335.5,390.5C 336.5,390.5 337.5,390.5 338.5,390.5C 338.343,389.127 338.51,387.793 339,386.5C 345.625,384.612 345.791,383.778 339.5,384C 338.429,384.852 337.429,385.685 336.5,386.5C 322.024,355.89 305.191,326.557 286,298.5C 284.667,297.167 283.333,295.833 282,294.5C 281.833,295 281.667,295.5 281.5,296C 286.53,308.18 292.197,320.013 298.5,331.5C 296.24,328.736 293.74,326.069 291,323.5C 290.784,321.616 290.117,319.949 289,318.5C 287.301,319.406 285.467,319.739 283.5,319.5C 282.978,316.432 282.145,313.432 281,310.5C 281.06,317.029 277.893,320.363 271.5,320.5C 271.662,322.527 271.495,324.527 271,326.5C 270.109,323.062 268.609,319.896 266.5,317C 264.43,316.621 262.93,317.455 262,319.5C 262.363,315.199 262.363,310.866 262,306.5C 261.417,308.002 260.584,309.335 259.5,310.5C 257.829,308.49 257.162,306.157 257.5,303.5C 256.5,303.5 255.5,303.5 254.5,303.5C 253.698,302.115 253.031,302.282 252.5,304C 251.767,305.766 251.433,307.599 251.5,309.5C 250.085,341.495 250.252,373.495 252,405.5C 252.202,407.256 252.702,408.922 253.5,410.5C 254.251,409.624 254.751,408.624 255,407.5C 256.195,396.867 256.695,386.2 256.5,375.5C 257.633,355.995 257.633,336.329 256.5,316.5C 257.222,316.918 257.722,317.584 258,318.5C 258.208,341.513 258.708,364.513 259.5,387.5C 258.013,395.45 256.846,403.45 256,411.5C 251.298,413.499 248.798,411.999 248.5,407C 248.436,377.509 248.602,348.009 249,318.5C 247.879,323.689 247.045,329.022 246.5,334.5C 245.833,329.5 245.167,324.5 244.5,319.5C 242.259,319.119 239.926,318.952 237.5,319C 240.29,318.439 242.623,317.106 244.5,315C 243.944,314.617 243.611,314.117 243.5,313.5C 244.321,307.842 242.154,306.175 237,308.5C 236.51,309.793 236.343,311.127 236.5,312.5C 234.97,311.933 233.47,311.267 232,310.5C 231.338,312.813 230.838,315.146 230.5,317.5C 228.143,317.663 225.81,317.497 223.5,317C 222.51,312.366 221.51,312.366 220.5,317C 222.328,318.163 223.328,319.83 223.5,322C 221.848,325.326 220.682,328.826 220,332.5C 218.284,333.552 217.284,332.886 217,330.5C 216.667,330.833 216.333,331.167 216,331.5C 215.808,329.423 215.308,327.423 214.5,325.5C 213.833,325.833 213.167,326.167 212.5,326.5C 210.895,331.007 209.229,335.34 207.5,339.5C 209.124,339.36 210.29,340.027 211,341.5C 211.333,340.167 211.667,338.833 212,337.5C 212.772,338.849 213.939,339.682 215.5,340C 213.333,343.197 210.833,346.03 208,348.5C 207.517,349.448 207.351,350.448 207.5,351.5C 206.07,351.421 204.736,351.754 203.5,352.5C 202.479,354.619 200.979,356.286 199,357.5C 198.586,357.043 198.086,356.709 197.5,356.5C 195.971,357.763 194.305,358.763 192.5,359.5C 204.875,338.535 216.208,317.035 226.5,295C 226.167,294.833 225.833,294.667 225.5,294.5C 221.682,298.162 218.349,302.162 215.5,306.5C 216.833,302.833 218.167,299.167 219.5,295.5C 215.858,293.29 211.858,292.29 207.5,292.5C 206.361,296.036 203.861,298.369 200,299.5C 198.287,298.863 198.121,297.863 199.5,296.5C 201.833,295.5 203.5,293.833 204.5,291.5C 203.424,290.344 202.424,290.511 201.5,292C 199.167,292.667 196.833,292.667 194.5,292C 193.335,290.008 192.002,288.175 190.5,286.5C 190.833,285.5 191.5,284.833 192.5,284.5C 192.273,286.933 193.273,288.599 195.5,289.5C 197.455,290.93 199.121,290.597 200.5,288.5C 202.377,287.341 202.877,285.674 202,283.5C 200.211,281.771 198.044,281.104 195.5,281.5C 200.002,279.975 203.002,277.308 204.5,273.5C 171.496,288.164 140.496,306.164 111.5,327.5C 111.833,327.833 112.167,328.167 112.5,328.5C 115.859,327.151 119.192,325.818 122.5,324.5C 122.5,325.5 122.5,326.5 122.5,327.5C 118.715,328.178 115.049,329.345 111.5,331C 110.333,331.5 109.5,332.333 109,333.5C 107.113,331.974 106.113,329.974 106,327.5C 105.336,330.516 105.836,333.349 107.5,336C 106.968,338.02 105.635,338.853 103.5,338.5C 103.5,337.5 103.5,336.5 103.5,335.5C 102.5,335.5 101.5,335.5 100.5,335.5C 101.758,338.694 102.424,342.027 102.5,345.5C 99.5887,342.01 96.922,338.344 94.5,334.5C 94.1667,333.167 93.8333,331.833 93.5,330.5C 90.8811,322.729 88.0478,315.062 85,307.5C 84.6667,304.167 84.3333,300.833 84,297.5C 83.2904,296.027 82.1238,295.36 80.5,295.5C 78.8742,286.248 77.7075,276.914 77,267.5C 76.7996,265.68 75.9663,264.347 74.5,263.5C 73.5076,255.684 73.1743,247.684 73.5,239.5C 73.7639,231.721 74.7639,224.054 76.5,216.5C 78.9813,210.684 81.4813,204.684 84,198.5C 84.3333,195.167 84.6667,191.833 85,188.5C 88.9872,181.357 92.4872,174.023 95.5,166.5C 98.2028,161.258 101.369,156.258 105,151.5C 105.483,150.552 105.649,149.552 105.5,148.5C 107.893,147.647 109.226,145.981 109.5,143.5C 113.342,140.165 117.175,136.498 121,132.5C 121.853,134.125 122.853,134.458 124,133.5C 124.711,131.633 124.211,130.133 122.5,129C 126.149,123.29 129.982,123.124 134,128.5C 135.624,128.43 137.457,127.93 139.5,127C 137.623,125.815 135.623,124.815 133.5,124C 132.941,123.275 132.608,122.442 132.5,121.5C 134.106,118.557 136.106,115.891 138.5,113.5C 149.944,103.6 162.611,95.4338 176.5,89C 178.473,88.5045 180.473,88.3379 182.5,88.5C 184.209,93.4523 186.042,98.4523 188,103.5C 188.814,106.177 190.314,108.177 192.5,109.5 Z"/></g>
<g><path style="opacity:1" fill="#431f17" d="M 193.5,195.5 C 194.833,196.833 194.833,198.167 193.5,199.5C 192.167,199.5 190.833,199.5 189.5,199.5C 189.5,198.167 189.5,196.833 189.5,195.5C 190.833,195.5 192.167,195.5 193.5,195.5 Z"/></g>
<g><path style="opacity:1" fill="#3f310a" d="M 193.5,195.5 C 192.167,195.5 190.833,195.5 189.5,195.5C 189.5,196.833 189.5,198.167 189.5,199.5C 190.833,199.5 192.167,199.5 193.5,199.5C 188.539,201.673 186.872,200.173 188.5,195C 190.387,194.22 192.054,194.387 193.5,195.5 Z"/></g>
<g><path style="opacity:1" fill="#bee894" d="M 111.5,163.5 C 145.17,177.828 176.503,195.995 205.5,218C 203.447,218.325 201.447,217.991 199.5,217C 171.395,203.452 144.395,188.119 118.5,171C 115.572,168.91 113.239,166.41 111.5,163.5 Z"/></g>
<g><path style="opacity:1" fill="#45271b" d="M 210.5,178.5 C 217.552,178.55 219.885,181.883 217.5,188.5C 209.741,192.582 206.574,190.249 208,181.5C 208.698,180.309 209.531,179.309 210.5,178.5 Z"/></g>
<g><path style="opacity:1" fill="#c4dd99" d="M 381.5,175.5 C 381.833,172.5 380.5,171.167 377.5,171.5C 377.5,171.167 377.5,170.833 377.5,170.5C 400.501,159.878 401.834,161.545 381.5,175.5 Z"/></g>
<g><path style="opacity:1" fill="#6c8124" d="M 105.5,148.5 C 105.649,149.552 105.483,150.552 105,151.5C 101.369,156.258 98.2028,161.258 95.5,166.5C 97.5437,159.788 100.877,153.788 105.5,148.5 Z"/></g>
<g><path style="opacity:1" fill="#bfeb95" d="M 256.5,98.5 C 256.5,98.8333 256.5,99.1667 256.5,99.5C 256.5,100.833 256.5,102.167 256.5,103.5C 256.627,127.509 256.294,151.509 255.5,175.5C 255.665,178.85 255.498,182.183 255,185.5C 254.333,186.167 253.667,186.833 253,187.5C 252.007,183.558 251.34,179.558 251,175.5C 250.5,149.835 250.333,124.169 250.5,98.5C 250.833,98.5 251.167,98.5 251.5,98.5C 253.167,97.1667 254.833,97.1667 256.5,98.5 Z"/></g>
<g><path style="opacity:1" fill="#bfe795" d="M 217.5,188.5 C 219.885,181.883 217.552,178.55 210.5,178.5C 195.984,154.604 182.651,129.937 170.5,104.5C 171.002,103.479 171.668,103.312 172.5,104C 193.367,132.556 211.034,163.056 225.5,195.5C 225.333,196.167 225.167,196.833 225,197.5C 222.492,194.469 219.992,191.469 217.5,188.5 Z"/></g>
<g><path style="opacity:1" fill="#beea93" d="M 320.5,116.5 C 321.708,117.234 323.041,117.567 324.5,117.5C 325.436,118.974 326.77,119.974 328.5,120.5C 317.157,143.2 304.823,165.2 291.5,186.5C 290.833,186.5 290.5,186.833 290.5,187.5C 288.233,190.271 285.733,192.938 283,195.5C 282.333,194.167 282.333,192.833 283,191.5C 294.957,167.585 307.957,144.252 322,121.5C 321.513,119.956 321.013,118.29 320.5,116.5 Z"/></g>
<g><path style="opacity:1" fill="#99d74d" d="M 328.5,120.5 C 328.833,120.5 329.167,120.5 329.5,120.5C 341.026,128.846 351.859,138.18 362,148.5C 367.924,155.366 373.091,162.699 377.5,170.5C 377.5,170.833 377.5,171.167 377.5,171.5C 361.22,179.811 345.22,188.478 329.5,197.5C 326.019,198.491 322.853,200.158 320,202.5C 316.659,201.226 315.159,199.059 315.5,196C 312.99,195.879 310.656,196.546 308.5,198C 311.018,200.756 314.018,202.756 317.5,204C 313.833,204.333 310.167,204.667 306.5,205C 304.926,206.826 304.093,208.993 304,211.5C 303.505,209.527 303.338,207.527 303.5,205.5C 301.738,205.357 300.071,205.691 298.5,206.5C 297.77,205.066 296.77,203.9 295.5,203C 297.577,202.808 299.577,202.308 301.5,201.5C 302.127,200.583 302.461,199.583 302.5,198.5C 304.026,197.508 304.693,196.008 304.5,194C 304.45,191.131 303.117,189.297 300.5,188.5C 300.389,187.883 300.056,187.383 299.5,187C 296.601,186.814 293.934,186.648 291.5,186.5C 304.823,165.2 317.157,143.2 328.5,120.5 Z"/></g>
<g><path style="opacity:1" fill="#6a8b21" d="M 138.5,113.5 C 136.106,115.891 134.106,118.557 132.5,121.5C 132.608,122.442 132.941,123.275 133.5,124C 135.623,124.815 137.623,125.815 139.5,127C 137.457,127.93 135.624,128.43 134,128.5C 129.982,123.124 126.149,123.29 122.5,129C 124.211,130.133 124.711,131.633 124,133.5C 122.853,134.458 121.853,134.125 121,132.5C 117.175,136.498 113.342,140.165 109.5,143.5C 109.226,145.981 107.893,147.647 105.5,148.5C 109.958,141.235 115.124,134.568 121,128.5C 126.137,122.518 131.97,117.518 138.5,113.5 Z"/></g>
<g><path style="opacity:1" fill="#c2de98" d="M 329.5,120.5 C 329.167,120.5 328.833,120.5 328.5,120.5C 326.77,119.974 325.436,118.974 324.5,117.5C 337.813,98.1442 339.48,99.1442 329.5,120.5 Z"/></g>
<g><path style="opacity:1" fill="#53580c" d="M 295.5,105.5 C 300.131,105.723 304.464,106.89 308.5,109C 307.944,109.383 307.611,109.883 307.5,110.5C 303.429,108.815 299.429,107.148 295.5,105.5 Z"/></g>
<g><path style="opacity:1" fill="#9ece53" d="M 256.5,99.5 C 262.845,99.6527 269.178,99.986 275.5,100.5C 281.394,102.153 287.394,103.82 293.5,105.5C 294.167,105.5 294.833,105.5 295.5,105.5C 299.429,107.148 303.429,108.815 307.5,110.5C 311.813,111.99 315.813,113.99 319.5,116.5C 311.887,113.472 303.887,111.472 295.5,110.5C 295.542,108.151 294.375,106.818 292,106.5C 289.703,109.78 286.87,110.28 283.5,108C 284.793,107.51 286.127,107.343 287.5,107.5C 287.5,106.5 287.5,105.5 287.5,104.5C 279.702,103.34 271.869,102.34 264,101.5C 261.39,101.533 259.223,102.2 257.5,103.5C 257.167,103.5 256.833,103.5 256.5,103.5C 256.5,102.167 256.5,100.833 256.5,99.5 Z"/></g>
<g><path style="opacity:1" fill="#99d74c" d="M 256.5,175.5 C 257.309,151.509 257.643,127.509 257.5,103.5C 259.223,102.2 261.39,101.533 264,101.5C 271.869,102.34 279.702,103.34 287.5,104.5C 287.5,105.5 287.5,106.5 287.5,107.5C 286.127,107.343 284.793,107.51 283.5,108C 286.87,110.28 289.703,109.78 292,106.5C 294.375,106.818 295.542,108.151 295.5,110.5C 303.887,111.472 311.887,113.472 319.5,116.5C 319.833,116.5 320.167,116.5 320.5,116.5C 321.013,118.29 321.513,119.956 322,121.5C 307.957,144.252 294.957,167.585 283,191.5C 282.333,192.833 282.333,194.167 283,195.5C 285.733,192.938 288.233,190.271 290.5,187.5C 289.975,192.14 290.642,196.473 292.5,200.5C 292.062,200.435 291.728,200.601 291.5,201C 292.804,201.804 293.471,202.971 293.5,204.5C 292.772,206.155 292.605,207.821 293,209.5C 294.333,210.167 295.333,211.167 296,212.5C 296.333,212.167 296.667,211.833 297,211.5C 299.434,215.224 298.601,217.391 294.5,218C 292.286,212.92 288.619,209.42 283.5,207.5C 277.281,203.559 270.614,200.392 263.5,198C 256.167,197.333 248.833,197.333 241.5,198C 237.603,199.019 233.936,200.519 230.5,202.5C 217.702,172.114 204.702,141.78 191.5,111.5C 191.624,110.893 191.957,110.56 192.5,110.5C 206.544,107.99 220.21,104.824 233.5,101C 238.823,100.501 244.156,100.334 249.5,100.5C 249.333,126.502 249.5,152.502 250,178.5C 250.369,182.863 250.869,187.196 251.5,191.5C 252.675,191.719 253.675,191.386 254.5,190.5C 256.319,185.699 256.986,180.699 256.5,175.5 Z"/></g>
<g><path style="opacity:1" fill="#afe37b" d="M 256.5,103.5 C 256.833,103.5 257.167,103.5 257.5,103.5C 257.643,127.509 257.309,151.509 256.5,175.5C 256.167,175.5 255.833,175.5 255.5,175.5C 256.294,151.509 256.627,127.509 256.5,103.5 Z"/></g>
<g><path style="opacity:1" fill="#5b6315" d="M 275.5,100.5 C 279.509,100.858 283.509,101.358 287.5,102C 289.879,102.716 291.879,103.883 293.5,105.5C 287.394,103.82 281.394,102.153 275.5,100.5 Z"/></g>
<g><path style="opacity:1" fill="#594b15" d="M 251.5,87.5 C 251.5,91.1667 251.5,94.8333 251.5,98.5C 251.167,98.5 250.833,98.5 250.5,98.5C 231.475,98.3111 213.142,101.644 195.5,108.5C 198.177,106.818 200.843,105.151 203.5,103.5C 203.5,102.167 203.5,100.833 203.5,99.5C 204.833,99.5 206.167,99.5 207.5,99.5C 207.5,100.5 207.5,101.5 207.5,102.5C 208.833,102.5 210.167,102.5 211.5,102.5C 211.52,100.857 210.853,99.5237 209.5,98.5C 211.421,97.359 213.421,97.1923 215.5,98C 214.833,98.3333 214.167,98.6667 213.5,99C 220.431,100.141 226.931,98.9746 233,95.5C 238.126,96.5919 243.293,96.7586 248.5,96C 250.041,93.3229 251.041,90.4896 251.5,87.5 Z"/></g>
<g><path style="opacity:1" fill="#bfd692" d="M 256.5,98.5 C 254.833,97.1667 253.167,97.1667 251.5,98.5C 251.5,94.8333 251.5,91.1667 251.5,87.5C 251.565,85.3043 252.232,83.3043 253.5,81.5C 254.192,82.0253 254.692,82.6919 255,83.5C 255.912,88.4636 256.412,93.4636 256.5,98.5 Z"/></g>
<g><path style="opacity:0.004" fill="#fefffe" d="M 9.5,224.5 C 10.8333,225.167 10.8333,225.167 9.5,224.5 Z"/></g>
<g><path style="opacity:1" fill="#3d2313" d="M 201.5,234.5 C 201.5,234.833 201.5,235.167 201.5,235.5C 201.88,237.698 201.213,239.365 199.5,240.5C 199.389,241.117 199.056,241.617 198.5,242C 191.806,243.176 189.306,240.343 191,233.5C 194.775,230.711 198.275,231.045 201.5,234.5 Z"/></g>
<g><path style="opacity:1" fill="#9ec159" d="M 338.5,243.5 C 338.167,243.5 337.833,243.5 337.5,243.5C 338.092,240.369 337.092,238.036 334.5,236.5C 333.726,235.853 332.726,235.52 331.5,235.5C 329.645,235.34 328.312,236.007 327.5,237.5C 326.659,239.379 326.325,241.379 326.5,243.5C 325.833,243.5 325.167,243.5 324.5,243.5C 324.5,242.167 324.5,240.833 324.5,239.5C 325.301,237.958 325.634,236.292 325.5,234.5C 328.85,234.335 332.183,234.502 335.5,235C 338.037,237.195 339.037,240.028 338.5,243.5 Z"/></g>
<g><path style="opacity:1" fill="#3c3809" d="M 315.5,233.5 C 318.956,239.142 317.623,241.142 311.5,239.5C 309.837,235.793 311.171,233.793 315.5,233.5 Z"/></g>
<g><path style="opacity:1" fill="#5a611e" d="M 334.5,236.5 C 332.585,236.216 330.919,236.549 329.5,237.5C 328.833,237.5 328.167,237.5 327.5,237.5C 328.312,236.007 329.645,235.34 331.5,235.5C 332.726,235.52 333.726,235.853 334.5,236.5 Z"/></g>
<g><path style="opacity:1" fill="#471d19" d="M 311.5,239.5 C 311.167,236.5 312.5,235.167 315.5,235.5C 315.5,236.833 315.5,238.167 315.5,239.5C 314.167,239.5 312.833,239.5 311.5,239.5 Z"/></g>
<g><path style="opacity:1" fill="#47191d" d="M 199.5,240.5 C 197.167,240.5 194.833,240.5 192.5,240.5C 192.081,235.302 194.248,233.635 199,235.5C 199.494,237.134 199.66,238.801 199.5,240.5 Z"/></g>
<g><path style="opacity:1" fill="#a1d55e" d="M 394.5,207.5 C 397.508,217.854 399.508,228.52 400.5,239.5C 400.5,240.833 400.5,242.167 400.5,243.5C 380.833,243.5 361.167,243.5 341.5,243.5C 341.414,242.504 341.748,241.671 342.5,241C 345.606,238.87 348.606,239.036 351.5,241.5C 366.32,240.324 381.987,240.324 398.5,241.5C 397.335,230.179 396.002,218.846 394.5,207.5 Z"/></g>
<g><path style="opacity:1" fill="#3f2515" d="M 334.5,236.5 C 337.092,238.036 338.092,240.369 337.5,243.5C 335.41,246.875 332.41,248.041 328.5,247C 327.177,246.184 326.511,245.017 326.5,243.5C 326.325,241.379 326.659,239.379 327.5,237.5C 328.167,237.5 328.833,237.5 329.5,237.5C 330.919,236.549 332.585,236.216 334.5,236.5 Z"/></g>
<g><path style="opacity:1" fill="#471a1d" d="M 329.5,237.5 C 333.851,236.533 336.185,238.2 336.5,242.5C 334.774,242.185 333.107,242.019 331.5,242C 335.339,244.599 334.672,245.766 329.5,245.5C 329.374,243.8 328.707,242.3 327.5,241C 327.978,239.697 328.645,238.531 329.5,237.5 Z"/></g>
<g><path style="opacity:1" fill="#bfe995" d="M 324.5,243.5 C 325.167,243.5 325.833,243.5 326.5,243.5C 326.511,245.017 327.177,246.184 328.5,247C 332.41,248.041 335.41,246.875 337.5,243.5C 337.833,243.5 338.167,243.5 338.5,243.5C 339.5,243.5 340.5,243.5 341.5,243.5C 361.167,243.5 380.833,243.5 400.5,243.5C 400.833,243.5 401.167,243.5 401.5,243.5C 401.5,245.167 401.5,246.833 401.5,248.5C 401.167,248.5 400.833,248.5 400.5,248.5C 378.909,249.488 357.242,249.822 335.5,249.5C 333.5,249.5 331.5,249.5 329.5,249.5C 324.015,248.673 318.348,248.173 312.5,248C 311.663,246.989 311.33,245.822 311.5,244.5C 315.798,243.8 320.131,243.467 324.5,243.5 Z"/></g>
<g><path style="opacity:1" fill="#b5e183" d="M 167.5,243.5 C 150.83,243.333 134.163,243.5 117.5,244C 110.104,244.151 102.771,244.818 95.5,246C 100.657,247.283 105.99,247.95 111.5,248C 131.164,248.5 150.831,248.667 170.5,248.5C 149.671,249.663 128.671,249.829 107.5,249C 100.935,248.931 94.6013,247.931 88.5,246C 94.0398,244.446 99.7065,243.446 105.5,243C 126.337,242.171 147.004,242.337 167.5,243.5 Z"/></g>
<g><path style="opacity:1" fill="#bfe999" d="M 167.5,243.5 C 174.5,243.5 181.5,243.5 188.5,243.5C 191.372,244.325 194.372,245.159 197.5,246C 196.944,246.383 196.611,246.883 196.5,247.5C 187.862,248.34 179.195,248.673 170.5,248.5C 150.831,248.667 131.164,248.5 111.5,248C 105.99,247.95 100.657,247.283 95.5,246C 102.771,244.818 110.104,244.151 117.5,244C 134.163,243.5 150.83,243.333 167.5,243.5 Z"/></g>
<g><path style="opacity:1" fill="#6d892a" d="M 201.5,234.5 C 198.275,231.045 194.775,230.711 191,233.5C 189.306,240.343 191.806,243.176 198.5,242C 199.056,241.617 199.389,241.117 199.5,240.5C 201.213,239.365 201.88,237.698 201.5,235.5C 202.613,236.946 202.78,238.613 202,240.5C 200.125,242.982 198.291,245.315 196.5,247.5C 196.611,246.883 196.944,246.383 197.5,246C 194.372,245.159 191.372,244.325 188.5,243.5C 184.523,232.643 188.19,228.476 199.5,231C 200.823,231.816 201.489,232.983 201.5,234.5 Z"/></g>
<g><path style="opacity:1" fill="#c1d894" d="M 401.5,243.5 C 424.047,245.285 424.047,246.951 401.5,248.5C 401.5,246.833 401.5,245.167 401.5,243.5 Z"/></g>
<g><path style="opacity:1" fill="#595a10" d="M 73.5,239.5 C 73.1743,247.684 73.5076,255.684 74.5,263.5C 74.5,266.167 74.5,268.833 74.5,271.5C 72.9865,265.405 72.3198,259.072 72.5,252.5C 72.5009,247.987 72.8343,243.653 73.5,239.5 Z"/></g>
<g><path style="opacity:1" fill="#99d74c" d="M 329.5,249.5 C 331.5,249.5 333.5,249.5 335.5,249.5C 356.327,250.497 377.327,250.831 398.5,250.5C 398.666,256.176 398.499,261.843 398,267.5C 396.322,274.749 395.155,282.082 394.5,289.5C 394.067,292.166 393.567,294.832 393,297.5C 389.619,304.265 386.785,311.265 384.5,318.5C 370.37,308.962 355.704,300.295 340.5,292.5C 338.144,289.709 335.144,288.042 331.5,287.5C 329.71,286.239 328.043,284.739 326.5,283C 325.552,282.517 324.552,282.351 323.5,282.5C 323.5,281.5 323.5,280.5 323.5,279.5C 316.338,277.835 309.338,275.835 302.5,273.5C 302.694,276.33 303.361,278.996 304.5,281.5C 302.824,282.183 302.157,283.517 302.5,285.5C 300.176,285.338 298.509,284.172 297.5,282C 297.833,281.667 298.167,281.333 298.5,281C 296.564,280.187 294.564,279.687 292.5,279.5C 292.67,278.178 292.337,277.011 291.5,276C 292.333,275.167 293.167,274.333 294,273.5C 293.937,269.558 295.603,266.558 299,264.5C 300.376,257.37 301.543,250.203 302.5,243C 301.591,237.197 300.257,231.53 298.5,226C 301.903,222.97 306.07,220.136 311,217.5C 312.059,217.63 312.892,218.13 313.5,219C 311.664,220.419 309.664,221.586 307.5,222.5C 309.447,224.276 309.78,226.276 308.5,228.5C 307.15,227.05 305.484,226.383 303.5,226.5C 305.059,229.096 306.726,231.763 308.5,234.5C 307.113,234.807 305.446,234.807 303.5,234.5C 303.5,235.5 303.5,236.5 303.5,237.5C 304.978,237.238 306.311,237.571 307.5,238.5C 307.97,240.774 308.97,242.774 310.5,244.5C 309.691,246.071 309.357,247.738 309.5,249.5C 316.094,250.239 322.761,250.239 329.5,249.5 Z"/></g>
<g><path style="opacity:1" fill="#9fcd58" d="M 400.5,248.5 C 400.07,261.602 398.737,274.602 396.5,287.5C 395.833,288.167 395.167,288.833 394.5,289.5C 395.155,282.082 396.322,274.749 398,267.5C 398.499,261.843 398.666,256.176 398.5,250.5C 377.327,250.831 356.327,250.497 335.5,249.5C 357.242,249.822 378.909,249.488 400.5,248.5 Z"/></g>
<g><path style="opacity:1" fill="#594816" d="M 400.5,239.5 C 401.404,240.209 401.737,241.209 401.5,242.5C 406.099,242.8 410.599,242.467 415,241.5C 416.586,242.376 418.086,243.376 419.5,244.5C 421.214,247.775 420.381,250.108 417,251.5C 412.659,249.49 409.325,250.49 407,254.5C 406.417,252.998 405.584,251.665 404.5,250.5C 404.437,255.218 404.437,259.885 404.5,264.5C 405.5,265.833 406.5,265.833 407.5,264.5C 407.291,263.914 406.957,263.414 406.5,263C 408.291,260.894 408.958,258.394 408.5,255.5C 410.6,255.523 412.433,254.856 414,253.5C 414.5,253.833 415,254.167 415.5,254.5C 412.882,256.2 412.216,258.366 413.5,261C 409.921,263.762 407.421,267.262 406,271.5C 405.667,270.167 405.333,268.833 405,267.5C 404,267.833 403,268.167 402,268.5C 401.667,267.833 401.333,267.167 401,266.5C 400.8,270.753 400.3,274.92 399.5,279C 399.833,279.333 400.167,279.667 400.5,280C 399.232,282.627 397.899,285.127 396.5,287.5C 398.737,274.602 400.07,261.602 400.5,248.5C 400.833,248.5 401.167,248.5 401.5,248.5C 424.047,246.951 424.047,245.285 401.5,243.5C 401.167,243.5 400.833,243.5 400.5,243.5C 400.5,242.167 400.5,240.833 400.5,239.5 Z"/></g>
<g><path style="opacity:1" fill="#859544" d="M 323.5,266.5 C 324.274,265.853 325.274,265.52 326.5,265.5C 328.355,265.34 329.688,266.007 330.5,267.5C 328.236,266.781 325.903,266.448 323.5,266.5 Z"/></g>
<g><path style="opacity:1" fill="#3c290d" d="M 183.5,263.5 C 185.904,270.77 183.237,273.77 175.5,272.5C 175.167,271.833 174.833,271.167 174.5,270.5C 172.511,261.825 175.511,259.492 183.5,263.5 Z"/></g>
<g><path style="opacity:1" fill="#461a1c" d="M 174.5,270.5 C 173.78,264.362 176.28,262.362 182,264.5C 183.511,271.258 181.011,273.258 174.5,270.5 Z"/></g>
<g><path style="opacity:1" fill="#68732b" d="M 183.5,263.5 C 184.748,264.334 185.415,265.667 185.5,267.5C 185.833,271.833 183.833,273.833 179.5,273.5C 177.955,273.489 176.622,273.156 175.5,272.5C 183.237,273.77 185.904,270.77 183.5,263.5 Z"/></g>
<g><path style="opacity:1" fill="#3b2e0f" d="M 323.5,266.5 C 325.903,266.448 328.236,266.781 330.5,267.5C 331.258,271.733 329.591,274.399 325.5,275.5C 324.287,275.253 323.62,274.586 323.5,273.5C 322.053,272.866 321.387,271.699 321.5,270C 321.387,268.301 322.053,267.134 323.5,266.5 Z"/></g>
<g><path style="opacity:1" fill="#491821" d="M 323.5,273.5 C 321.919,269.077 323.585,267.41 328.5,268.5C 329.167,272.5 327.5,274.167 323.5,273.5 Z"/></g>
<g><path style="opacity:0.004" fill="#fefffe" d="M 482.5,278.5 C 483.833,279.167 483.833,279.167 482.5,278.5 Z"/></g>
<g><path style="opacity:1" fill="#a6d767" d="M 331.5,287.5 C 326.087,284.464 320.42,281.798 314.5,279.5C 310.391,276.455 307.058,277.122 304.5,281.5C 303.361,278.996 302.694,276.33 302.5,273.5C 309.338,275.835 316.338,277.835 323.5,279.5C 323.5,280.5 323.5,281.5 323.5,282.5C 324.552,282.351 325.552,282.517 326.5,283C 328.043,284.739 329.71,286.239 331.5,287.5 Z"/></g>
<g><path style="opacity:1" fill="#3e310f" d="M 195.5,281.5 C 198.044,281.104 200.211,281.771 202,283.5C 202.877,285.674 202.377,287.341 200.5,288.5C 201.508,283.333 199.675,281.666 195,283.5C 194.51,285.545 194.677,287.545 195.5,289.5C 193.273,288.599 192.273,286.933 192.5,284.5C 193.167,283.167 194.167,282.167 195.5,281.5 Z"/></g>
<g><path style="opacity:0.004" fill="#fefffe" d="M 19.5,282.5 C 20.8333,283.167 20.8333,283.167 19.5,282.5 Z"/></g>
<g><path style="opacity:1" fill="#3a300a" d="M 211.5,283.5 C 212.204,281.656 213.537,281.156 215.5,282C 218.341,286.514 217.007,288.514 211.5,288C 210.199,286.384 210.199,284.884 211.5,283.5 Z"/></g>
<g><path style="opacity:1" fill="#443319" d="M 314.5,279.5 C 316.65,281.922 316.983,284.589 315.5,287.5C 315.167,287.5 314.833,287.5 314.5,287.5C 315.717,281.552 313.383,279.052 307.5,280C 305.07,285.384 306.737,288.217 312.5,288.5C 306.955,289.976 304.288,287.643 304.5,281.5C 307.058,277.122 310.391,276.455 314.5,279.5 Z"/></g>
<g><path style="opacity:1" fill="#471a1d" d="M 211.5,283.5 C 212.833,283.5 214.167,283.5 215.5,283.5C 215.5,284.5 215.5,285.5 215.5,286.5C 214.167,286.5 212.833,286.5 211.5,286.5C 211.5,285.5 211.5,284.5 211.5,283.5 Z"/></g>
<g><path style="opacity:1" fill="#461e1a" d="M 200.5,288.5 C 199.121,290.597 197.455,290.93 195.5,289.5C 194.677,287.545 194.51,285.545 195,283.5C 199.675,281.666 201.508,283.333 200.5,288.5 Z"/></g>
<g><path style="opacity:1" fill="#471a1c" d="M 314.5,287.5 C 313.833,287.833 313.167,288.167 312.5,288.5C 306.737,288.217 305.07,285.384 307.5,280C 313.383,279.052 315.717,281.552 314.5,287.5 Z"/></g>
<g><path style="opacity:0.004" fill="#fefffe" d="M 495.5,287.5 C 496.833,288.167 496.833,288.167 495.5,287.5 Z"/></g>
<g><path style="opacity:1" fill="#54510d" d="M 74.5,271.5 C 76.0127,281.895 78.346,292.229 81.5,302.5C 80.0698,299.402 78.2364,296.402 76,293.5C 75.3721,286.171 74.8721,278.837 74.5,271.5 Z"/></g>
<g><path style="opacity:1" fill="#403b0b" d="M 292.5,290.5 C 293.946,289.387 295.613,289.22 297.5,290C 299.15,294.686 297.484,296.686 292.5,296C 291.944,295.617 291.611,295.117 291.5,294.5C 293.167,294.5 294.833,294.5 296.5,294.5C 296.5,293.167 296.5,291.833 296.5,290.5C 295.167,290.5 293.833,290.5 292.5,290.5 Z"/></g>
<g><path style="opacity:1" fill="#461e1f" d="M 292.5,290.5 C 293.833,290.5 295.167,290.5 296.5,290.5C 296.5,291.833 296.5,293.167 296.5,294.5C 294.833,294.5 293.167,294.5 291.5,294.5C 291.232,292.901 291.566,291.568 292.5,290.5 Z"/></g>
<g><path style="opacity:1" fill="#66961c" d="M 190.5,286.5 C 192.002,288.175 193.335,290.008 194.5,292C 196.833,292.667 199.167,292.667 201.5,292C 202.424,290.511 203.424,290.344 204.5,291.5C 203.5,293.833 201.833,295.5 199.5,296.5C 198.121,297.863 198.287,298.863 200,299.5C 203.861,298.369 206.361,296.036 207.5,292.5C 211.858,292.29 215.858,293.29 219.5,295.5C 218.167,299.167 216.833,302.833 215.5,306.5C 199.96,330.585 185.794,355.585 173,381.5C 171.85,383.754 171.516,386.087 172,388.5C 179.347,379.118 186.18,369.451 192.5,359.5C 194.305,358.763 195.971,357.763 197.5,356.5C 198.086,356.709 198.586,357.043 199,357.5C 200.979,356.286 202.479,354.619 203.5,352.5C 204.736,351.754 206.07,351.421 207.5,351.5C 207.351,350.448 207.517,349.448 208,348.5C 210.833,346.03 213.333,343.197 215.5,340C 213.939,339.682 212.772,338.849 212,337.5C 211.667,338.833 211.333,340.167 211,341.5C 210.29,340.027 209.124,339.36 207.5,339.5C 209.229,335.34 210.895,331.007 212.5,326.5C 213.167,326.167 213.833,325.833 214.5,325.5C 215.308,327.423 215.808,329.423 216,331.5C 216.333,331.167 216.667,330.833 217,330.5C 217.284,332.886 218.284,333.552 220,332.5C 220.682,328.826 221.848,325.326 223.5,322C 223.328,319.83 222.328,318.163 220.5,317C 221.51,312.366 222.51,312.366 223.5,317C 225.81,317.497 228.143,317.663 230.5,317.5C 230.838,315.146 231.338,312.813 232,310.5C 233.47,311.267 234.97,311.933 236.5,312.5C 238.535,314.73 240.868,315.063 243.5,313.5C 243.611,314.117 243.944,314.617 244.5,315C 242.623,317.106 240.29,318.439 237.5,319C 239.926,318.952 242.259,319.119 244.5,319.5C 245.167,324.5 245.833,329.5 246.5,334.5C 247.045,329.022 247.879,323.689 249,318.5C 248.602,348.009 248.436,377.509 248.5,407C 248.798,411.999 251.298,413.499 256,411.5C 256.846,403.45 258.013,395.45 259.5,387.5C 258.708,364.513 258.208,341.513 258,318.5C 257.722,317.584 257.222,316.918 256.5,316.5C 256.201,312.072 255.535,307.739 254.5,303.5C 255.5,303.5 256.5,303.5 257.5,303.5C 257.162,306.157 257.829,308.49 259.5,310.5C 260.584,309.335 261.417,308.002 262,306.5C 262.363,310.866 262.363,315.199 262,319.5C 262.93,317.455 264.43,316.621 266.5,317C 268.609,319.896 270.109,323.062 271,326.5C 271.495,324.527 271.662,322.527 271.5,320.5C 277.893,320.363 281.06,317.029 281,310.5C 282.145,313.432 282.978,316.432 283.5,319.5C 285.467,319.739 287.301,319.406 289,318.5C 290.117,319.949 290.784,321.616 291,323.5C 293.74,326.069 296.24,328.736 298.5,331.5C 308.39,348.27 318.557,364.936 329,381.5C 330.961,384.463 333.294,387.129 336,389.5C 336.483,388.552 336.649,387.552 336.5,386.5C 337.429,385.685 338.429,384.852 339.5,384C 345.791,383.778 345.625,384.612 339,386.5C 338.51,387.793 338.343,389.127 338.5,390.5C 337.5,390.5 336.5,390.5 335.5,390.5C 335.281,391.675 335.614,392.675 336.5,393.5C 339.572,396.066 342.905,396.733 346.5,395.5C 341.479,398.864 336.479,402.197 331.5,405.5C 322.361,409.984 313.028,413.651 303.5,416.5C 299.486,416.334 295.486,416.501 291.5,417C 291.833,417.333 292.167,417.667 292.5,418C 291.391,418.638 290.225,419.138 289,419.5C 285.67,417.427 282.17,417.094 278.5,418.5C 279.833,419.5 279.833,420.5 278.5,421.5C 276.257,422.474 273.924,422.808 271.5,422.5C 271.5,421.5 271.5,420.5 271.5,419.5C 267.445,419.176 263.445,419.509 259.5,420.5C 262.107,421.318 264.774,421.818 267.5,422C 264.247,423.036 260.914,423.703 257.5,424C 244.502,423.768 231.502,423.268 218.5,422.5C 217.833,422.5 217.167,422.5 216.5,422.5C 216.389,421.883 216.056,421.383 215.5,421C 210.517,420.589 205.85,419.256 201.5,417C 198.173,416.39 194.839,415.89 191.5,415.5C 176.119,411.143 162.119,404.143 149.5,394.5C 148.766,393.292 148.433,391.959 148.5,390.5C 147.127,390.657 145.793,390.49 144.5,390C 140.363,385.11 136.03,380.443 131.5,376C 129.482,375.495 127.482,374.995 125.5,374.5C 122.825,370.156 120.159,365.822 117.5,361.5C 114.61,359.957 112.943,357.624 112.5,354.5C 111.448,354.649 110.448,354.483 109.5,354C 107.584,351.91 105.584,350.077 103.5,348.5C 102.89,347.609 102.557,346.609 102.5,345.5C 102.424,342.027 101.758,338.694 100.5,335.5C 101.5,335.5 102.5,335.5 103.5,335.5C 103.5,336.5 103.5,337.5 103.5,338.5C 105.635,338.853 106.968,338.02 107.5,336C 105.836,333.349 105.336,330.516 106,327.5C 106.113,329.974 107.113,331.974 109,333.5C 109.5,332.333 110.333,331.5 111.5,331C 115.049,329.345 118.715,328.178 122.5,327.5C 122.5,326.5 122.5,325.5 122.5,324.5C 145.872,312.821 168.538,300.154 190.5,286.5 Z"/></g>
<g><path style="opacity:1" fill="#6c8f24" d="M 74.5,263.5 C 75.9663,264.347 76.7996,265.68 77,267.5C 77.7075,276.914 78.8742,286.248 80.5,295.5C 82.1238,295.36 83.2904,296.027 84,297.5C 84.3333,300.833 84.6667,304.167 85,307.5C 88.0478,315.062 90.8811,322.729 93.5,330.5C 91.0186,325.044 88.352,319.711 85.5,314.5C 84.3627,310.421 83.0294,306.421 81.5,302.5C 78.346,292.229 76.0127,281.895 74.5,271.5C 74.5,268.833 74.5,266.167 74.5,263.5 Z"/></g>
<g><path style="opacity:1" fill="#99d54d" d="M 335.5,297.5 C 348.27,305.726 361.604,313.226 375.5,320C 377.746,321.257 379.079,323.09 379.5,325.5C 377.084,330.001 374.417,334.334 371.5,338.5C 349.196,322.855 327.196,306.855 305.5,290.5C 310.041,290.948 314.374,290.281 318.5,288.5C 322.324,291.579 326.324,294.412 330.5,297C 332.134,297.494 333.801,297.66 335.5,297.5 Z"/></g>
<g><path style="opacity:1" fill="#594d13" d="M 396.5,287.5 C 397.005,290.841 397.172,294.174 397,297.5C 396.581,296.328 395.915,295.328 395,294.5C 394.34,297.047 394.507,299.547 395.5,302C 394.576,303.811 393.743,303.645 393,301.5C 392.591,306.258 390.758,310.425 387.5,314C 386.767,315.766 386.433,317.599 386.5,319.5C 385.508,319.672 384.842,319.338 384.5,318.5C 386.785,311.265 389.619,304.265 393,297.5C 393.567,294.832 394.067,292.166 394.5,289.5C 395.167,288.833 395.833,288.167 396.5,287.5 Z"/></g>
<g><path style="opacity:1" fill="#bde792" d="M 195.5,281.5 C 194.167,282.167 193.167,283.167 192.5,284.5C 191.5,284.833 190.833,285.5 190.5,286.5C 168.538,300.154 145.872,312.821 122.5,324.5C 119.192,325.818 115.859,327.151 112.5,328.5C 112.167,328.167 111.833,327.833 111.5,327.5C 140.496,306.164 171.496,288.164 204.5,273.5C 203.002,277.308 200.002,279.975 195.5,281.5 Z"/></g>
<g><path style="opacity:1" fill="#614d29" d="M 53.5,329.5 C 45.557,311.401 40.557,292.401 38.5,272.5C 39.1174,272.389 39.6174,272.056 40,271.5C 40.1895,275.17 41.0228,278.67 42.5,282C 41.3614,285.947 42.1948,289.447 45,292.5C 45.1821,300.139 46.5154,307.472 49,314.5C 50,311.833 51,311.833 52,314.5C 52.3333,314.167 52.6667,313.833 53,313.5C 53.5,315 54,316.5 54.5,318C 53.6058,321.776 53.2725,325.61 53.5,329.5 Z"/></g>
<g><path style="opacity:1" fill="#3d2b0e" d="M 277.5,316.5 C 278.397,309.464 275.897,307.797 270,311.5C 269.364,315.704 271.197,318.037 275.5,318.5C 272.898,319.969 270.731,319.302 269,316.5C 266.82,309.321 269.32,306.487 276.5,308C 279.885,310.743 280.218,313.576 277.5,316.5 Z"/></g>
<g><path style="opacity:1" fill="#432117" d="M 317.5,314.5 C 317.5,314.833 317.5,315.167 317.5,315.5C 308.993,319.922 305.826,317.589 308,308.5C 314.634,305.066 317.8,307.066 317.5,314.5 Z"/></g>
<g><path style="opacity:1" fill="#3e2d0f" d="M 243.5,313.5 C 240.868,315.063 238.535,314.73 236.5,312.5C 236.343,311.127 236.51,309.793 237,308.5C 242.154,306.175 244.321,307.842 243.5,313.5 Z"/></g>
<g><path style="opacity:1" fill="#471a1b" d="M 277.5,316.5 C 276.833,317.167 276.167,317.833 275.5,318.5C 271.197,318.037 269.364,315.704 270,311.5C 275.897,307.797 278.397,309.464 277.5,316.5 Z"/></g>
<g><path style="opacity:1" fill="#6a8327" d="M 317.5,314.5 C 317.8,307.066 314.634,305.066 308,308.5C 305.826,317.589 308.993,319.922 317.5,315.5C 317.586,316.496 317.252,317.329 316.5,318C 313.167,318.667 309.833,318.667 306.5,318C 303.537,312.816 304.203,308.15 308.5,304C 315.454,302.445 319.12,305.278 319.5,312.5C 319.253,313.713 318.586,314.38 317.5,314.5 Z"/></g>
<g><path style="opacity:1" fill="#bee894" d="M 314.5,279.5 C 320.42,281.798 326.087,284.464 331.5,287.5C 335.144,288.042 338.144,289.709 340.5,292.5C 355.704,300.295 370.37,308.962 384.5,318.5C 384.842,319.338 385.508,319.672 386.5,319.5C 389.948,322.078 393.281,324.911 396.5,328C 391.441,327.538 386.608,326.038 382,323.5C 380.989,324.056 380.156,324.722 379.5,325.5C 379.079,323.09 377.746,321.257 375.5,320C 361.604,313.226 348.27,305.726 335.5,297.5C 329.343,294.496 323.509,290.83 318,286.5C 317.162,287.999 316.329,288.332 315.5,287.5C 316.983,284.589 316.65,281.922 314.5,279.5 Z"/></g>
<g><path style="opacity:0.004" fill="#fefffe" d="M 459.5,315.5 C 460.833,316.167 460.833,316.167 459.5,315.5 Z"/></g>
<g><path style="opacity:1" fill="#bfe996" d="M 256.5,375.5 C 256.695,386.2 256.195,396.867 255,407.5C 254.751,408.624 254.251,409.624 253.5,410.5C 252.702,408.922 252.202,407.256 252,405.5C 250.252,373.495 250.085,341.495 251.5,309.5C 254.336,305.402 255.002,305.902 253.5,311C 253.63,312.059 254.13,312.892 255,313.5C 256.133,334.152 256.633,354.818 256.5,375.5 Z"/></g>
<g><path style="opacity:1" fill="#585513" d="M 85.5,314.5 C 88.352,319.711 91.0186,325.044 93.5,330.5C 93.8333,331.833 94.1667,333.167 94.5,334.5C 92.9256,334.063 91.7589,333.063 91,331.5C 90.2945,327.037 88.6278,323.037 86,319.5C 85.5065,317.866 85.3398,316.199 85.5,314.5 Z"/></g>
<g><path style="opacity:0.004" fill="#fefffe" d="M 486.5,336.5 C 487.833,337.167 487.833,337.167 486.5,336.5 Z"/></g>
<g><path style="opacity:0.004" fill="#fefffe" d="M 32.5,338.5 C 33.8333,339.167 33.8333,339.167 32.5,338.5 Z"/></g>
<g><path style="opacity:1" fill="#bde594" d="M 192.5,359.5 C 186.18,369.451 179.347,379.118 172,388.5C 171.516,386.087 171.85,383.754 173,381.5C 185.794,355.585 199.96,330.585 215.5,306.5C 218.349,302.162 221.682,298.162 225.5,294.5C 225.833,294.667 226.167,294.833 226.5,295C 216.208,317.035 204.875,338.535 192.5,359.5 Z"/></g>
<g><path style="opacity:0.004" fill="#fefffe" d="M 57.5,347.5 C 58.8333,348.167 58.8333,348.167 57.5,347.5 Z"/></g>
<g><path style="opacity:1" fill="#a6d173" d="M 254.5,303.5 C 255.535,307.739 256.201,312.072 256.5,316.5C 257.633,336.329 257.633,355.995 256.5,375.5C 256.633,354.818 256.133,334.152 255,313.5C 254.13,312.892 253.63,312.059 253.5,311C 255.002,305.902 254.336,305.402 251.5,309.5C 251.433,307.599 251.767,305.766 252.5,304C 253.031,302.282 253.698,302.115 254.5,303.5 Z"/></g>
<g><path style="opacity:1" fill="#bde792" d="M 336.5,386.5 C 336.649,387.552 336.483,388.552 336,389.5C 333.294,387.129 330.961,384.463 329,381.5C 318.557,364.936 308.39,348.27 298.5,331.5C 292.197,320.013 286.53,308.18 281.5,296C 281.667,295.5 281.833,295 282,294.5C 283.333,295.833 284.667,297.167 286,298.5C 305.191,326.557 322.024,355.89 336.5,386.5 Z"/></g>
<g><path style="opacity:0.004" fill="#fefffe" d="M 19.5,361.5 C 20.8333,362.167 20.8333,362.167 19.5,361.5 Z"/></g>
<g><path style="opacity:1" fill="#53510d" d="M 389.5,351.5 C 390.649,351.791 391.316,352.624 391.5,354C 391.333,354.833 391.167,355.667 391,356.5C 388.943,357.978 387.61,359.978 387,362.5C 379.964,370.038 372.464,377.038 364.5,383.5C 373.56,374.61 382.06,365.277 390,355.5C 390.579,354.072 390.412,352.738 389.5,351.5 Z"/></g>
<g><path style="opacity:1" fill="#6d8a25" d="M 103.5,348.5 C 105.584,350.077 107.584,351.91 109.5,354C 110.448,354.483 111.448,354.649 112.5,354.5C 112.943,357.624 114.61,359.957 117.5,361.5C 120.159,365.822 122.825,370.156 125.5,374.5C 117.227,366.616 109.894,357.949 103.5,348.5 Z"/></g>
<g><path style="opacity:1" fill="#6c8b25" d="M 125.5,374.5 C 127.482,374.995 129.482,375.495 131.5,376C 136.03,380.443 140.363,385.11 144.5,390C 145.793,390.49 147.127,390.657 148.5,390.5C 148.433,391.959 148.766,393.292 149.5,394.5C 140.618,388.957 132.618,382.29 125.5,374.5 Z"/></g>
<g><path style="opacity:0.004" fill="#fefffe" d="M 37.5,393.5 C 38.8333,394.167 38.8333,394.167 37.5,393.5 Z"/></g>
<g><path style="opacity:1" fill="#6c8726" d="M 191.5,415.5 C 194.839,415.89 198.173,416.39 201.5,417C 205.85,419.256 210.517,420.589 215.5,421C 216.056,421.383 216.389,421.883 216.5,422.5C 207.922,420.94 199.588,418.606 191.5,415.5 Z"/></g>
<g><path style="opacity:1" fill="#6b8f24" d="M 303.5,416.5 C 293.02,419.995 282.354,422.662 271.5,424.5C 258.181,425.499 244.848,425.666 231.5,425C 226.924,424.728 222.591,423.895 218.5,422.5C 231.502,423.268 244.502,423.768 257.5,424C 260.914,423.703 264.247,423.036 267.5,422C 264.774,421.818 262.107,421.318 259.5,420.5C 263.445,419.509 267.445,419.176 271.5,419.5C 271.5,420.5 271.5,421.5 271.5,422.5C 273.924,422.808 276.257,422.474 278.5,421.5C 279.833,420.5 279.833,419.5 278.5,418.5C 282.17,417.094 285.67,417.427 289,419.5C 290.225,419.138 291.391,418.638 292.5,418C 292.167,417.667 291.833,417.333 291.5,417C 295.486,416.501 299.486,416.334 303.5,416.5 Z"/></g>
<g><path style="opacity:1" fill="#584e11" d="M 331.5,405.5 C 330.358,407.433 328.692,408.933 326.5,410C 320.963,412.039 315.63,414.372 310.5,417C 309.323,420.349 306.99,421.849 303.5,421.5C 303.5,420.5 303.5,419.5 303.5,418.5C 300.235,418.918 297.235,420.085 294.5,422C 292.19,422.497 289.857,422.663 287.5,422.5C 287.649,423.552 287.483,424.552 287,425.5C 281.928,424.529 276.762,424.195 271.5,424.5C 282.354,422.662 293.02,419.995 303.5,416.5C 313.028,413.651 322.361,409.984 331.5,405.5 Z"/></g>
<g><path style="opacity:0.004" fill="#fefffe" d="M 37.5,431.5 C 38.8333,432.167 38.8333,432.167 37.5,431.5 Z"/></g>
<g><path style="opacity:0.004" fill="#fefffe" d="M 494.5,443.5 C 495.833,444.167 495.833,444.167 494.5,443.5 Z"/></g>
<g><path style="opacity:0.004" fill="#fefffe" d="M 18.5,446.5 C 19.8333,447.167 19.8333,447.167 18.5,446.5 Z"/></g>
<g><path style="opacity:0.004" fill="#fefffe" d="M 123.5,446.5 C 124.833,447.167 124.833,447.167 123.5,446.5 Z"/></g>
<g><path style="opacity:1" fill="#5d4924" d="M 354.5,433.5 C 328.977,448.673 301.311,457.673 271.5,460.5C 278.109,457.907 285.109,455.74 292.5,454C 293.931,453.535 295.097,452.701 296,451.5C 296.414,451.957 296.914,452.291 297.5,452.5C 300.443,451.756 303.443,451.256 306.5,451C 307.459,449.536 308.792,448.703 310.5,448.5C 315.757,450.621 319.757,449.287 322.5,444.5C 321.5,443.167 320.5,441.833 319.5,440.5C 320.325,439.614 321.325,439.281 322.5,439.5C 322.651,442.718 323.484,443.051 325,440.5C 325.777,442.215 327.11,443.215 329,443.5C 337.673,440.254 346.173,436.92 354.5,433.5 Z"/></g>
<g><path style="opacity:0.004" fill="#fefffe" d="M 93.5,466.5 C 94.8333,467.167 94.8333,467.167 93.5,466.5 Z"/></g>
<g><path style="opacity:0.004" fill="#fefffe" d="M 52.5,468.5 C 53.8333,469.167 53.8333,469.167 52.5,468.5 Z"/></g>
<g><path style="opacity:0.004" fill="#fefffe" d="M 253.5,471.5 C 254.833,472.167 254.833,472.167 253.5,471.5 Z"/></g>
<g><path style="opacity:0.004" fill="#fefffe" d="M 328.5,471.5 C 329.833,472.167 329.833,472.167 328.5,471.5 Z"/></g>
<g><path style="opacity:0.004" fill="#fefffe" d="M 20.5,474.5 C 21.8333,475.167 21.8333,475.167 20.5,474.5 Z"/></g>
<g><path style="opacity:0.004" fill="#fefffe" d="M 204.5,487.5 C 205.833,488.167 205.833,488.167 204.5,487.5 Z"/></g>
</svg>
